:SAMPLES-PER-SECOND 30
:FULLY-SPECIFIED
:DEGREES
1
root  83.0459 40.4375 -0.666868 167.469 -89.1734 -166.473
RightUpLeg  -0.619745 -8.17847 -5.29463
RightLeg  1.59445 -7.03764 4.09918
RightFoot  -0.0948757 0.114716 -1.254
RightToes  -1.74624e-010 0 -3.6325e-017
Spine  3.37909 -0.329085 2.96492
Spine1  -0.113566 0.346746 -3.55781
HEad  -6.12811 4.78474 0.824159
LeftShoulder1  0.659668 -0.0905737 -10.9778
LeftArm  -14.7529 5.07136 0.836264
LeftForeArm  6.72867 -1.08248 -3.3946
LeftHand  -0.244104 0.0205437 5.32207
RightShoulder  0.656758 0.550118 8.79173
RightArm  -18.5683 3.9928 -1.63907
RightForeArm  2.86534 -0.0272143 3.9411
RightHand  -1.64751 6.16871 -16.7607
LeftUpLeg  0.463168 6.12008 5.86241
LeftLeg  0.877466 8.34893 -3.60388
LeftFoot  -1.68871 0.226653 -2.61018
LeftToes  -6.82154e-011 1.37952e-011 -1.79748e-011
2
root  83.0459 40.4375 -0.664358 167.908 -89.1609 -166.92
RightUpLeg  -0.611651 -8.17269 -5.30399
RightLeg  1.59382 -7.01018 4.09568
RightFoot  -0.0941856 0.110821 -1.19345
RightToes  -1.74624e-010 0 -3.6325e-017
Spine  3.40018 -0.280483 2.71139
Spine1  -0.126375 0.325365 -3.18113
HEad  -6.12362 4.53562 0.66669
LeftShoulder1  0.696262 -0.220147 -11.3656
LeftArm  -14.616 5.03717 1.0996
LeftForeArm  6.45706 -1.04674 -3.45878
LeftHand  -0.244104 0.0205437 5.32207
RightShoulder  0.648229 0.523293 8.67557
RightArm  -18.5059 3.95898 -1.68258
RightForeArm  2.63738 -0.0345992 3.95785
RightHand  -1.63128 5.91981 -16.9381
LeftUpLeg  0.447878 6.12914 5.8652
LeftLeg  0.938835 8.33896 -3.6026
LeftFoot  -1.69373 0.229251 -2.6506
LeftToes  -6.82154e-011 1.37952e-011 -1.79748e-011
3
root  83.0459 40.4375 -0.657353 167.407 -89.1086 -166.424
RightUpLeg  -0.598712 -8.14765 -5.28788
RightLeg  1.55948 -6.9782 4.09159
RightFoot  -0.0731272 0.107916 -1.1483
RightToes  -1.74624e-010 0 -3.6325e-017
Spine  3.48314 -0.215169 2.42782
Spine1  -0.210653 0.31387 -2.7726
HEad  -6.12171 4.19878 0.564309
LeftShoulder1  0.723932 -0.306379 -11.7042
LeftArm  -14.5715 4.94115 1.28961
LeftForeArm  6.30721 -1.09618 -3.50184
LeftHand  -0.244104 0.0205437 5.32207
RightShoulder  0.630475 0.421441 8.63642
RightArm  -18.4851 4.01057 -1.77665
RightForeArm  2.38858 -0.061935 3.97798
RightHand  -1.61558 5.74673 -17.0263
LeftUpLeg  0.430726 6.15473 5.88504
LeftLeg  1.01051 8.34974 -3.60395
LeftFoot  -1.72088 0.22932 -2.65168
LeftToes  -6.82154e-011 1.37952e-011 -1.79748e-011
4
root  83.046 40.4375 -0.64752 166.503 -89.0258 -165.508
RightUpLeg  -0.589269 -8.11898 -5.25366
RightLeg  1.49017 -6.95398 4.0885
RightFoot  -0.0334786 0.107992 -1.14948
RightToes  -1.74624e-010 0 -3.6325e-017
Spine  3.52918 -0.135047 2.21154
Spine1  -0.261985 0.331714 -2.43746
HEad  -6.12583 4.14275 0.589377
LeftShoulder1  0.742907 -0.359054 -11.9604
LeftArm  -14.8418 4.83521 1.47191
LeftForeArm  7.24618 -1.47288 -3.41165
LeftHand  -0.244104 0.0205437 5.32207
RightShoulder  0.603022 0.269562 8.54399
RightArm  -18.4991 4.11073 -1.76055
RightForeArm  2.28491 -0.11809 3.99611
RightHand  -1.61287 5.82123 -16.8909
LeftUpLeg  0.432589 6.17727 5.90862
LeftLeg  1.01636 8.40306 -3.60862
LeftFoot  -1.74697 0.228192 -2.63413
LeftToes  -6.82154e-011 1.37952e-011 -1.79748e-011
5
root  83.0463 40.4375 -0.637304 166.439 -88.957 -165.421
RightUpLeg  -0.596809 -8.1082 -5.24042
RightLeg  1.43787 -6.92112 4.08431
RightFoot  -0.00134458 0.107932 -1.14855
RightToes  -1.74624e-010 0 -3.6325e-017
Spine  3.4665 -0.0274272 1.99929
Spine1  -0.184894 0.376645 -2.08799
HEad  -6.00844 4.18157 0.544267
LeftShoulder1  0.797665 -0.567771 -12.3622
LeftArm  -14.7979 4.80132 1.80986
LeftForeArm  8.6046 -1.81311 -3.41753
LeftHand  -0.244104 0.0205437 5.32207
RightShoulder  0.567987 0.100233 8.29577
RightArm  -18.4842 4.13818 -1.60664
RightForeArm  2.22371 -0.178254 4.01078
RightHand  -1.60806 5.88578 -16.7496
LeftUpLeg  0.430763 6.17433 5.90827
LeftLeg  0.996078 8.47863 -3.60647
LeftFoot  -1.75698 0.228687 -2.64183
LeftToes  -6.82154e-011 1.37952e-011 -1.79748e-011
6
root  83.0467 40.4375 -0.626282 167.11 -88.9221 -166.063
RightUpLeg  -0.637864 -8.11005 -5.25602
RightLeg  1.44515 -6.87025 4.07563
RightFoot  0.0114801 0.10572 -1.11418
RightToes  -1.74624e-010 0 -3.6325e-017
Spine  3.36595 0.078346 1.77914
Spine1  -0.065244 0.421852 -1.74717
HEad  -5.74795 4.16279 0.298461
LeftShoulder1  0.886186 -0.921236 -12.8594
LeftArm  -14.1905 4.84605 2.20739
LeftForeArm  10.4355 -2.19066 -3.62767
LeftHand  -0.244104 0.0205437 5.32207
RightShoulder  0.540294 -0.0301866 8.06628
RightArm  -18.5018 4.09792 -1.50977
RightForeArm  2.2607 -0.263802 3.98535
RightHand  -1.58591 5.75236 -16.7158
LeftUpLeg  0.388342 6.15282 5.88027
LeftLeg  1.02657 8.54186 -3.59327
LeftFoot  -1.77249 0.228965 -2.64615
LeftToes  -6.82154e-011 1.37952e-011 -1.79748e-011
